<svg xmlns="http://www.w3.org/2000/svg" viewBox="0 0 96.95 106.46"><defs><style>.cls-1{fill:#bea990;}</style></defs><title>Asset 7</title><g id="Layer_2" data-name="Layer 2"><g id="Layer_1-2" data-name="Layer 1"><path class="cls-1" d="M53.71,27.28,52,23.92,61.78,4.41a3,3,0,1,0-5.44-2.73L48.51,17.26l-8-15.47a3.2,3.2,0,1,0-5.68,3L44.84,24.08,0,106.19c5.32,0,9.27.54,12.57.09,5.7-.55,7.7-1.55,11.61-6.87C29.92,88,36.33,76.87,42.63,65.72c4-7.09,7.65-7.11,11.62,0,6.61,11.76,12.92,23.68,19.57,35.42,1.13,2,3.16,4.59,5,4.81,5.53.64,11.19.23,18.11.23C82.35,79.51,68.3,53.88,53.71,27.28Z"/></g></g></svg>